<svg aria-hidden="true" style="position: absolute; width: 0; height: 0; overflow: hidden;" version="1.1" xmlns="http://www.w3.org/2000/svg" xmlns:xlink="http://www.w3.org/1999/xlink">
<defs>
<symbol id="arrow-back" viewBox="0 0 49 32">
<path d="M44.953 13.074h-35.446l7.787-7.787c1.074-1.074 1.074-2.685 0-3.759s-2.685-1.074-3.759 0l-12.352 12.352c-1.074 1.074-1.074 2.685 0 3.759l12.352 12.352c1.074 1.074 2.685 1.074 3.759 0s1.074-2.685 0-3.759l-7.787-7.787h35.446c1.343 0 2.685-1.074 2.685-2.685s-1.343-2.685-2.685-2.685z"></path>
</symbol>
<symbol id="arrow-forward" viewBox="0 0 49 32">
<path d="M2.926 18.926h35.446l-7.787 7.787c-1.074 1.074-1.074 2.685 0 3.759s2.685 1.074 3.759 0l12.352-12.352c1.074-1.074 1.074-2.685 0-3.759l-12.352-12.352c-1.074-1.074-2.685-1.074-3.759 0s-1.074 2.685 0 3.759l7.787 7.787h-35.446c-1.343 0-2.685 1.074-2.685 2.685s1.343 2.685 2.685 2.685z"></path>
</symbol>

<symbol id="arrow-down" viewBox="0 0 22 32">
<path d="M9.639 2.111v23.151l-5.086-5.086c-0.702-0.701-1.754-0.701-2.455 0s-0.702 1.754 0 2.455l8.068 8.068c0.702 0.702 1.754 0.702 2.455 0l8.068-8.068c0.701-0.701 0.701-1.754 0-2.455s-1.754-0.701-2.455 0l-5.086 5.086v-23.151c0-0.877-0.702-1.754-1.754-1.754s-1.754 0.877-1.754 1.754z"></path>
</symbol>
</defs>
</svg>
